<svg width="25" height="25" viewBox="0 0 25 25" fill="none" xmlns="http://www.w3.org/2000/svg">
<path d="M10.6363 7.13434V24C10.6363 24.5523 11.084 25 11.6363 25H13.3637C13.916 25 14.3637 24.5523 14.3637 24V7.13434L21.6576 14.4282C22.0481 14.8187 22.6813 14.8187 23.0718 14.4282L24.2929 13.2071C24.6834 12.8166 24.6834 12.1834 24.2929 11.7929L13.2071 0.707106C12.8166 0.316582 12.1834 0.316583 11.7929 0.707107L0.707106 11.7929C0.316582 12.1834 0.316582 12.8166 0.707106 13.2071L1.9282 14.4282C2.31872 14.8187 2.95189 14.8187 3.34241 14.4282L10.6363 7.13434Z" fill="#4F919F"/>
</svg>
