<svg width="824" height="824" viewBox="0 0 824 824" fill="black" xmlns="http://www.w3.org/2000/svg">
<path d="M377.324 43.0269C182.898 43.0269 24.72 201.205 24.72 395.631C24.72 590.058 182.898 748.235 377.324 748.235C571.751 748.235 729.928 590.058 729.928 395.631C729.928 201.205 571.751 43.0269 377.324 43.0269ZM377.324 31.2555C578.563 31.2555 741.7 194.392 741.7 395.631C741.7 596.87 578.563 760.007 377.324 760.007C176.085 760.007 12.9486 596.87 12.9486 395.631C12.9486 194.392 176.085 31.2555 377.324 31.2555Z" fill="#4F919F"/>
<path d="M433.032 31.9052C231.366 31.9052 67.2996 195.972 67.2996 397.638C67.2996 599.303 231.366 763.37 433.032 763.37C634.697 763.37 798.764 599.303 798.764 397.638C798.764 195.972 634.697 31.9052 433.032 31.9052ZM433.032 20.1338C641.522 20.1338 810.536 189.148 810.536 397.638C810.536 606.127 641.522 775.141 433.032 775.141C224.542 775.141 55.5282 606.127 55.5282 397.638C55.5282 189.148 224.542 20.1338 433.032 20.1338Z" fill="#4F919F"/>
<path d="M405.901 97.511C227.701 97.511 82.7249 241.77 82.7249 419.089C82.7249 596.407 227.701 740.666 405.901 740.666C584.1 740.666 729.076 596.407 729.076 419.089C729.076 241.77 584.1 97.511 405.901 97.511ZM405.901 56.311C607.14 56.311 770.276 218.732 770.276 419.089C770.276 619.445 607.14 781.866 405.901 781.866C204.661 781.866 41.5249 619.445 41.5249 419.089C41.5249 218.732 204.661 56.311 405.901 56.311Z" fill="#4F919F"/>
</svg>
