<svg xmlns="http://www.w3.org/2000/svg" xmlns:xlink="http://www.w3.org/1999/xlink" width="700" height="700" viewBox="0 0 700 700"><defs><clipPath id="b"><rect width="700" height="700"/></clipPath></defs><g id="a" clip-path="url(#b)"><g transform="translate(11 17.104)"><g transform="translate(0 9.448)" fill="none"><path d="M309.542,0C480.5,0,619.085,138.587,619.085,309.542S480.5,619.085,309.542,619.085,0,480.5,0,309.542,138.587,0,309.542,0Z" stroke="none"/><path d="M 309.5423889160156 10 C 144.3742065429688 10 10 144.3742065429688 10 309.5423889160156 C 10 474.7105712890625 144.3742065429688 609.0847778320313 309.5423889160156 609.0847778320313 C 474.7105712890625 609.0847778320313 609.0847778320313 474.7105712890625 609.0847778320313 309.5423889160156 C 609.0847778320313 144.3742065429688 474.7105712890625 10 309.5423889160156 10 M 309.5423889160156 0 C 480.4978637695313 0 619.0847778320313 138.5868530273438 619.0847778320313 309.5423889160156 C 619.0847778320313 480.4978637695313 480.4978637695313 619.0847778320313 309.5423889160156 619.0847778320313 C 138.5868530273438 619.0847778320313 0 480.4978637695313 0 309.5423889160156 C 0 138.5868530273438 138.5868530273438 0 309.5423889160156 0 Z" stroke="none" fill="#65b8d9"/></g><g transform="translate(36.172)" fill="none"><path d="M320.695,0C497.81,0,641.39,143.58,641.39,320.695S497.81,641.39,320.695,641.39,0,497.81,0,320.695,143.58,0,320.695,0Z" stroke="none"/><path d="M 320.6949462890625 9.99993896484375 C 149.3771362304688 9.99993896484375 9.99993896484375 149.3771362304688 9.99993896484375 320.6949462890625 C 9.99993896484375 492.0126953125 149.3771362304688 631.3898315429688 320.6949462890625 631.3898315429688 C 492.0126953125 631.3898315429688 631.3898315429688 492.0126953125 631.3898315429688 320.6949462890625 C 631.3898315429688 149.3771362304688 492.0126953125 9.99993896484375 320.6949462890625 9.99993896484375 M 320.6949462890625 -6.103515625e-05 C 497.8098754882813 -6.103515625e-05 641.3898315429688 143.5800476074219 641.3898315429688 320.6949462890625 C 641.3898315429688 497.8098754882813 497.8098754882813 641.3898315429688 320.6949462890625 641.3898315429688 C 143.5800476074219 641.3898315429688 -6.103515625e-05 497.8098754882813 -6.103515625e-05 320.6949462890625 C -6.103515625e-05 143.5800476074219 143.5800476074219 -6.103515625e-05 320.6949462890625 -6.103515625e-05 Z" stroke="none" fill="#65b8d9"/></g><g transform="translate(24.085 23.421)" fill="none" stroke="#65b8d9" stroke-width="10"><circle cx="320.695" cy="320.695" r="320.695" stroke="none"/><circle cx="320.695" cy="320.695" r="315.695" fill="none"/></g><g transform="translate(24.276 30.733)" fill="none"><path d="M309.542,0C480.5,0,619.085,137.979,619.085,308.185S480.5,616.369,309.542,616.369,0,478.39,0,308.185,138.587,0,309.542,0Z" stroke="none"/><path d="M 309.5423889160156 34.99993896484375 C 158.1591796875 34.99993896484375 34.99993896484375 157.5501708984375 34.99993896484375 308.1847229003906 C 34.99993896484375 458.8192749023438 158.1591796875 581.369384765625 309.5423889160156 581.369384765625 C 460.9255065917969 581.369384765625 584.084716796875 458.8192749023438 584.084716796875 308.1847229003906 C 584.084716796875 157.5501708984375 460.9255065917969 34.99993896484375 309.5423889160156 34.99993896484375 M 309.5423889160156 -6.103515625e-05 C 480.4978332519531 -6.103515625e-05 619.084716796875 137.9789428710938 619.084716796875 308.1847229003906 C 619.084716796875 478.3905029296875 480.4978332519531 616.369384765625 309.5423889160156 616.369384765625 C 138.5868225097656 616.369384765625 -6.103515625e-05 478.3905029296875 -6.103515625e-05 308.1847229003906 C -6.103515625e-05 137.9789428710938 138.5868225097656 -6.103515625e-05 309.5423889160156 -6.103515625e-05 Z" stroke="none" fill="#65b8d9"/></g></g></g></svg>